<svg xmlns="http://www.w3.org/2000/svg" viewBox="0 0 512 512">
  <defs>
    <linearGradient id="teal-grad" x1="0%" y1="0%" x2="100%" y2="100%">
      <stop offset="0%" stop-color="#0d9488"/>
      <stop offset="100%" stop-color="#115e59"/>
    </linearGradient>
    <clipPath id="rounded">
      <rect width="512" height="512" rx="76.8" ry="76.8"/>
    </clipPath>
  </defs>
  <g clip-path="url(#rounded)">
    <!-- Card background -->
    <rect width="512" height="512" fill="url(#teal-grad)"/>
    <!-- Hex mosaic pattern (scaled from 100x100 tile) -->
    <g opacity="0.5">
      <pattern id="hex" patternUnits="userSpaceOnUse" width="512" height="512">
        <path transform="scale(5.12)" d="M62.1 19.5 L55.7 19.4 L53.4 15.9 L53.2 10.9 L66.6 0.0 L66.6 0.0 L68.9 0.0 L70.9 0.0 L71.3 0.0 Z M17.6 19.4 L29.5 24.6 L32.3 22.0 L32.0 20.2 L24.5 12.9 L19.7 14.1 L17.5 17.3 Z M74.0 58.0 L78.3 64.8 L76.2 71.6 L66.6 84.5 L66.6 84.5 L65.4 83.7 L64.8 70.1 Z M77.1 19.3 L91.0 20.3 L99.2 10.4 L100.0 0.0 L98.0 0.0 L78.9 11.1 Z M32.6 5.7 L44.4 13.3 L53.4 15.9 L53.2 10.9 L41.3 0.0 L32.5 1.5 Z M28.7 40.0 L6.4 49.8 L6.3 50.3 L9.1 55.0 L29.4 54.6 L33.2 41.3 L30.2 40.1 Z M1.3 27.8 L0.0 24.1 L0.0 20.3 L0.0 10.4 L8.6 16.5 Z M74.0 58.0 L54.2 57.4 L51.4 55.6 L51.2 46.5 L51.3 46.5 L76.9 47.5 L76.0 53.1 Z M29.4 54.6 L9.1 55.0 L10.8 62.8 L33.2 70.7 Z M78.9 11.1 L98.0 0.0 L70.9 0.0 L71.3 0.0 Z M89.6 68.2 L90.3 68.4 L90.7 69.8 L87.9 71.1 L76.2 71.6 L78.3 64.8 Z M32.6 5.7 L44.4 13.3 L32.0 20.2 L24.5 12.9 Z M90.1 38.5 L94.0 24.1 L100.0 27.8 L100.0 28.8 L100.0 37.5 L100.0 43.6 Z M17.5 17.3 L19.7 14.1 L13.3 0.5 L0.5 0.0 L0.1 0.0 L0.0 10.4 L8.6 16.5 Z M79.6 55.9 L91.8 62.5 L90.3 68.4 L89.6 68.2 Z M66.6 84.5 L76.2 71.6 L87.9 71.1 L68.9 85.8 Z M42.0 82.0 L41.3 86.9 L53.2 100.0 L66.6 84.5 L65.4 83.7 Z M51.2 46.5 L45.4 38.6 L33.2 41.3 L29.4 54.6 L33.2 70.7 L36.9 75.1 L51.4 55.6 Z M74.0 58.0 L74.0 58.0 L78.3 64.8 L89.6 68.2 L79.6 55.9 L76.0 53.1 Z M76.0 53.1 L79.6 55.9 L91.8 62.5 L95.5 54.8 L77.5 46.8 L76.9 47.5 Z M73.1 21.8 L77.1 19.3 L78.9 11.1 L71.3 0.0 L62.1 19.5 Z M17.0 21.8 L16.2 31.0 L28.7 40.0 L30.2 40.1 L27.5 29.3 L17.5 20.6 Z M17.0 21.8 L2.1 28.8 L1.3 27.8 L8.6 16.5 L17.5 17.3 L17.6 19.4 L17.5 20.6 Z M17.0 21.8 L16.2 31.0 L5.7 37.5 L2.1 28.8 Z M51.2 46.5 L45.4 38.6 L46.4 35.3 L55.7 19.4 L62.1 19.5 L73.1 21.8 L75.0 31.3 L51.3 46.5 Z M32.0 20.2 L44.4 13.3 L53.4 15.9 L55.7 19.4 L46.4 35.3 L32.3 22.0 Z M37.1 76.3 L22.7 82.9 L24.4 98.3 L32.5 100.0 L41.3 86.9 L42.0 82.0 Z M74.0 58.0 L74.0 58.0 L64.8 70.1 L54.2 57.4 Z M36.9 75.1 L33.2 70.7 L10.8 62.8 L1.6 81.6 L2.3 86.7 L22.7 82.9 L37.1 76.3 Z M28.7 40.0 L6.4 49.8 L4.4 43.6 L5.7 37.5 L16.2 31.0 Z M100.0 50.3 L95.5 54.8 L91.8 62.5 L90.3 68.4 L90.7 69.8 L100.0 81.6 L100.0 62.8 L100.0 55.0 Z M54.2 57.4 L64.8 70.1 L65.4 83.7 L42.0 82.0 L37.1 76.3 L36.9 75.1 L51.4 55.6 Z M100.0 90.7 L100.0 86.7 L100.0 81.6 L90.7 69.8 L87.9 71.1 L68.9 85.8 L70.9 87.4 L98.0 91.4 L100.0 91.0 Z M32.6 5.7 L24.5 12.9 L19.7 14.1 L13.3 0.5 L24.4 0.0 L32.5 1.5 Z M30.2 40.1 L33.2 41.3 L45.4 38.6 L46.4 35.3 L32.3 22.0 L29.5 24.6 L27.5 29.3 Z M13.3 100.0 L0.5 90.7 L2.3 86.7 L22.7 82.9 L24.4 98.3 Z M78.8 41.5 L75.0 31.3 L73.1 21.8 L77.1 19.3 L91.0 20.3 L94.0 24.1 L90.1 38.5 Z M76.9 47.5 L77.5 46.8 L78.8 41.5 L75.0 31.3 L51.3 46.5 Z M100.0 50.3 L95.5 54.8 L77.5 46.8 L78.8 41.5 L90.1 38.5 L100.0 43.6 L100.0 49.8 Z M17.5 20.6 L27.5 29.3 L29.5 24.6 L17.6 19.4 Z" fill="none" stroke="white" stroke-opacity="0.4" stroke-width="1" stroke-linejoin="round"/>
      </pattern>
      <rect width="512" height="512" fill="url(#hex)"/>
    </g>
    <!-- SKYJO text (diagonal, bottom-left to top-right) -->
    <text x="256" y="256" text-anchor="middle" dominant-baseline="central" font-family="Arial, Helvetica, sans-serif" font-weight="bold" font-size="120" fill="white" letter-spacing="6" transform="rotate(-30 256 256)">SKYJO</text>
  </g>
</svg>
